
<svg xmlns="http://www.w3.org/2000/svg" viewBox="0 0 800 600" preserveAspectRatio="none">
  <defs>
    <linearGradient id="bg" x1="0" y1="0" x2="1" y2="1">
      <stop offset="0%" stop-color="#0f2027">
        <animate attributeName="stop-color" values="#0f2027;#00c9ff;#0f2027" dur="6s" repeatCount="indefinite" />
      </stop>
      <stop offset="100%" stop-color="#2c5364">
        <animate attributeName="stop-color" values="#2c5364;#00c9ff;#2c5364" dur="6s" repeatCount="indefinite" />
      </stop>
    </linearGradient>
  </defs>

  <rect width="100%" height="100%" fill="url(#bg)" />

  <!-- Circuit "TAVARES" lines -->
  <g stroke="#00ffe0" stroke-width="2">
    <!-- T -->
    <line x1="50" y1="100" x2="150" y2="100" />
    <line x1="100" y1="100" x2="100" y2="200" />
    <!-- A -->
    <line x1="170" y1="200" x2="190" y2="100" />
    <line x1="190" y1="100" x2="210" y2="200" />
    <line x1="180" y1="160" x2="200" y2="160" />
    <!-- V -->
    <line x1="230" y1="100" x2="250" y2="200" />
    <line x1="250" y1="200" x2="270" y2="100" />
    <!-- A -->
    <line x1="290" y1="200" x2="310" y2="100" />
    <line x1="310" y1="100" x2="330" y2="200" />
    <line x1="300" y1="160" x2="320" y2="160" />
    <!-- R -->
    <line x1="350" y1="100" x2="350" y2="200" />
    <line x1="350" y1="100" x2="380" y2="100" />
    <line x1="380" y1="100" x2="380" y2="150" />
    <line x1="380" y1="150" x2="350" y2="150" />
    <line x1="350" y1="150" x2="385" y2="200" />
    <!-- E -->
    <line x1="400" y1="100" x2="400" y2="200" />
    <line x1="400" y1="100" x2="430" y2="100" />
    <line x1="400" y1="150" x2="425" y2="150" />
    <line x1="400" y1="200" x2="430" y2="200" />
    <!-- S -->
    <line x1="450" y1="100" x2="490" y2="100" />
    <line x1="450" y1="100" x2="450" y2="150" />
    <line x1="450" y1="150" x2="490" y2="150" />
    <line x1="490" y1="150" x2="490" y2="200" />
    <line x1="490" y1="200" x2="450" y2="200" />
  </g>

  <!-- Circuit nodes -->
  <g fill="#00ffe0">
    <!-- nodes at the end of each letter line -->
    <circle cx="100" cy="100" r="4">
      <animate attributeName="r" values="4;6;4" dur="1.5s" repeatCount="indefinite" />
    </circle>
    <circle cx="190" cy="100" r="4">
      <animate attributeName="r" values="4;6;4" dur="1.6s" repeatCount="indefinite" />
    </circle>
    <circle cx="250" cy="200" r="4">
      <animate attributeName="r" values="4;6;4" dur="1.4s" repeatCount="indefinite" />
    </circle>
    <circle cx="310" cy="100" r="4">
      <animate attributeName="r" values="4;6;4" dur="1.3s" repeatCount="indefinite" />
    </circle>
    <circle cx="385" cy="200" r="4">
      <animate attributeName="r" values="4;6;4" dur="1.7s" repeatCount="indefinite" />
    </circle>
    <circle cx="430" cy="200" r="4">
      <animate attributeName="r" values="4;6;4" dur="1.2s" repeatCount="indefinite" />
    </circle>
    <circle cx="450" cy="200" r="4">
      <animate attributeName="r" values="4;6;4" dur="1.8s" repeatCount="indefinite" />
    </circle>
  </g>
</svg>
